<svg xmlns="http://www.w3.org/2000/svg" xmlns:svg="http://www.w3.org/2000/svg" style="fill-rule:evenodd;clip-rule:evenodd;stroke-linecap:round" id="svg101" width="100%" height="100%" version="1.1" viewBox="0 0 2899 3907" xml:space="preserve"><metadata id="metadata107"/><g id="g99" transform="scale(4.16667)"><g id="g97"><g id="radio-297183.svg" transform="matrix(0.475029,-0.0713493,0.0713493,0.475029,327.604,129.227)"><g id="g16" transform="translate(-320,-240)"><clipPath id="_clip1"><rect id="rect5" width="640" height="480" x="0" y="0"/></clipPath><g id="g14" clip-path="url(#_clip1)"><g id="g26"><path style="color:#000;font-style:normal;font-variant:normal;font-weight:400;font-stretch:normal;font-size:medium;line-height:normal;font-family:sans-serif;font-variant-ligatures:normal;font-variant-position:normal;font-variant-caps:normal;font-variant-numeric:normal;font-variant-alternates:normal;font-variant-east-asian:normal;font-feature-settings:normal;font-variation-settings:normal;text-indent:0;text-align:start;text-decoration:none;text-decoration-line:none;text-decoration-style:solid;text-decoration-color:#000;letter-spacing:normal;word-spacing:normal;text-transform:none;writing-mode:lr-tb;direction:ltr;text-orientation:mixed;dominant-baseline:auto;baseline-shift:baseline;text-anchor:start;white-space:normal;shape-padding:0;shape-margin:0;inline-size:0;clip-rule:nonzero;display:inline;overflow:visible;visibility:visible;opacity:1;isolation:auto;mix-blend-mode:normal;color-interpolation:sRGB;color-interpolation-filters:linearRGB;solid-color:#000;solid-opacity:1;vector-effect:none;fill:#000;fill-opacity:1;fill-rule:nonzero;stroke:none;stroke-linecap:butt;stroke-linejoin:miter;stroke-miterlimit:4;stroke-dasharray:none;stroke-dashoffset:0;stroke-opacity:1;color-rendering:auto;image-rendering:auto;shape-rendering:auto;text-rendering:auto;enable-background:accumulate;stop-color:#000;stop-opacity:1" id="path22" d="m 391.93945,123.34961 c -6.3252,0.0415 -12.25795,3.07269 -15.99804,8.17383 -6.53183,8.90724 -4.60632,21.42306 4.30078,27.95508 27.39536,20.09009 41.82164,50.58305 39.68359,81.96679 -1.98787,29.17931 -18.16817,56.12203 -44.58345,73.27768 12.72582,0.15002 43.48681,3.01818 53.96486,4.92627 1.07941,-1.30365 2.13368,-2.62527 3.1623,-3.96416 15.82341,-20.59643 25.57482,-45.27967 27.36254,-71.52104 3.09594,-45.44426 -18.2069,-89.2735 -55.93555,-116.9414 -3.46592,-2.54238 -7.65871,-3.90048 -11.95703,-3.87305 z"/><path style="color:#000;font-style:normal;font-variant:normal;font-weight:400;font-stretch:normal;font-size:medium;line-height:normal;font-family:sans-serif;font-variant-ligatures:normal;font-variant-position:normal;font-variant-caps:normal;font-variant-numeric:normal;font-variant-alternates:normal;font-variant-east-asian:normal;font-feature-settings:normal;font-variation-settings:normal;text-indent:0;text-align:start;text-decoration:none;text-decoration-line:none;text-decoration-style:solid;text-decoration-color:#000;letter-spacing:normal;word-spacing:normal;text-transform:none;writing-mode:lr-tb;direction:ltr;text-orientation:mixed;dominant-baseline:auto;baseline-shift:baseline;text-anchor:start;white-space:normal;shape-padding:0;shape-margin:0;inline-size:0;clip-rule:nonzero;display:inline;overflow:visible;visibility:visible;opacity:1;isolation:auto;mix-blend-mode:normal;color-interpolation:sRGB;color-interpolation-filters:linearRGB;solid-color:#000;solid-opacity:1;vector-effect:none;fill:#000;fill-opacity:1;fill-rule:nonzero;stroke:none;stroke-linecap:butt;stroke-linejoin:miter;stroke-miterlimit:4;stroke-dasharray:none;stroke-dashoffset:0;stroke-opacity:1;color-rendering:auto;image-rendering:auto;shape-rendering:auto;text-rendering:auto;enable-background:accumulate;stop-color:#000;stop-opacity:1" id="path18" d="m 495.10938,22.462891 a 20,20 0 0 0 -15.31641,7.257812 20,20 0 0 0 2.67578,28.158203 c 58.76188,48.561274 89.66994,118.796084 84.71289,190.820314 -4.9571,72.02963 -45.32534,138.25097 -110.41016,179.58984 a 20,20 0 0 0 -6.16015,27.60547 20,20 0 0 0 27.60547,6.16016 C 553.34998,414.33356 601.22104,336.66569 607.08594,251.44531 612.95089,166.22954 576.06129,83.33165 507.95117,27.044922 a 20,20 0 0 0 -12.84179,-4.582031 z"/></g><g id="g38"><path style="color:#000;font-style:normal;font-variant:normal;font-weight:400;font-stretch:normal;font-size:medium;line-height:normal;font-family:sans-serif;font-variant-ligatures:normal;font-variant-position:normal;font-variant-caps:normal;font-variant-numeric:normal;font-variant-alternates:normal;font-variant-east-asian:normal;font-feature-settings:normal;font-variation-settings:normal;text-indent:0;text-align:start;text-decoration:none;text-decoration-line:none;text-decoration-style:solid;text-decoration-color:#000;letter-spacing:normal;word-spacing:normal;text-transform:none;writing-mode:lr-tb;direction:ltr;text-orientation:mixed;dominant-baseline:auto;baseline-shift:baseline;text-anchor:start;white-space:normal;shape-padding:0;shape-margin:0;inline-size:0;clip-rule:nonzero;display:inline;overflow:visible;visibility:visible;opacity:1;isolation:auto;mix-blend-mode:normal;color-interpolation:sRGB;color-interpolation-filters:linearRGB;solid-color:#000;solid-opacity:1;vector-effect:none;fill:#000;fill-opacity:1;fill-rule:nonzero;stroke:none;stroke-linecap:butt;stroke-linejoin:miter;stroke-miterlimit:4;stroke-dasharray:none;stroke-dashoffset:0;stroke-opacity:1;color-rendering:auto;image-rendering:auto;shape-rendering:auto;text-rendering:auto;enable-background:accumulate;stop-color:#000;stop-opacity:1" id="path30" d="m 131.80859,22.851562 a 20,20 0 0 0 -12.66992,4.583985 C 51.028552,83.722275 14.138954,166.62017 20.003906,251.83594 25.868802,337.05631 73.739863,414.72418 148.87305,462.44531 a 20,20 0 0 0 27.60547,-6.16015 20,20 0 0 0 -6.16016,-27.60547 C 105.23354,387.34082 64.865307,321.11752 59.908203,249.08789 54.951155,177.06366 85.859213,106.8308 144.62109,58.269531 a 20,20 0 0 0 2.67579,-28.158203 20,20 0 0 0 -15.48829,-7.259766 z"/><path style="color:#000;font-style:normal;font-variant:normal;font-weight:400;font-stretch:normal;font-size:medium;line-height:normal;font-family:sans-serif;font-variant-ligatures:normal;font-variant-position:normal;font-variant-caps:normal;font-variant-numeric:normal;font-variant-alternates:normal;font-variant-east-asian:normal;font-feature-settings:normal;font-variation-settings:normal;text-indent:0;text-align:start;text-decoration:none;text-decoration-line:none;text-decoration-style:solid;text-decoration-color:#000;letter-spacing:normal;word-spacing:normal;text-transform:none;writing-mode:lr-tb;direction:ltr;text-orientation:mixed;dominant-baseline:auto;baseline-shift:baseline;text-anchor:start;white-space:normal;shape-padding:0;shape-margin:0;inline-size:0;clip-rule:nonzero;display:inline;overflow:visible;visibility:visible;opacity:1;isolation:auto;mix-blend-mode:normal;color-interpolation:sRGB;color-interpolation-filters:linearRGB;solid-color:#000;solid-opacity:1;vector-effect:none;fill:#000;fill-opacity:1;fill-rule:nonzero;stroke:none;stroke-linecap:butt;stroke-linejoin:miter;stroke-miterlimit:4;stroke-dasharray:none;stroke-dashoffset:0;stroke-opacity:1;color-rendering:auto;image-rendering:auto;shape-rendering:auto;text-rendering:auto;enable-background:accumulate;stop-color:#000;stop-opacity:1" id="path34" d="m 234.98828,123.74023 c -4.23938,0.009 -8.36634,1.3643 -11.78516,3.8711 -37.72864,27.6679 -59.03148,71.4991 -55.93554,116.94336 2.86023,41.98438 26.10576,79.97865 61.98921,103.62969 8.69378,-19.23336 24.69048,-31.68737 24.69048,-31.68737 -27.7097,-17.06892 -44.73121,-44.68381 -46.77344,-74.66107 -2.13805,-31.38374 12.28823,-61.87866 39.68359,-81.96875 8.9071,-6.53202 10.83261,-19.04784 4.30078,-27.95508 -3.77639,-5.14908 -9.78447,-8.18542 -16.16992,-8.17188 z"/></g></g></g></g><g id="Antenna2-vereinfacht.svg" transform="matrix(3.50552,0,0,3.50552,367.229,234.533)"><g id="g27" transform="translate(-21.8662,-36.9007)"><clipPath id="_clip2"><rect id="rect19" width="43.732" height="73.801" x="0" y="0"/></clipPath><g id="g25" clip-path="url(#_clip2)"><g id="Ebene-1" transform="translate(-298.35,-310.045)"><path id="path836" d="m 300.828,316.107 4.822,7.366 2.142,6.562 -0.803,4.152 h 10.178 l 2.009,4.286 -2.544,9.911 2.946,7.634 1.072,10.044 -3.081,9.777 8.706,3.482 10.982,-2.946 -1.34,-8.706 -5.625,-4.017 -6.026,-4.42 -3.884,-9.911 -0.804,-6.294 4.286,-7.634 -0.134,-4.688 -6.429,0.268 -5.357,-0.937 -2.812,-5.893 1.875,-6.161 -0.938,-5.089 -2.411,-1.474 -4.955,0.402 z" style="fill:#7b7a82;fill-opacity:.99;fill-rule:nonzero;stroke:#000;stroke-width:.75px;stroke-linecap:butt"/><path id="path847" d="m 313.527,383.696 c -3.968,-1.184 -4.251,-6.19 -3.425,-9.574 0.743,-3.892 3.236,-8.639 6.821,-11.028 -0.008,-3.782 -1.19,-6.099 -1.695,-9.663 -1.031,-2.862 -1.609,-2.402 -1.849,-5.066 0.801,-3.493 4.556,-11.184 3.171,-11.983 -4.098,0.108 -10.75,0.04 -14.848,0.157 -3.116,-1.624 2.747,-8.224 3.633,-10.227 -0.572,-2.001 -5.005,-4.813 -6.495,-8.116 -1.662,-3.681 1.104,-8.385 5.254,-8.142 3.45,0.081 7.899,-0.323 9.814,3.171 1.682,3.596 -1.588,12.594 -1.588,12.594 l 1.289,2.413 c 4.586,0.215 12.426,-1.942 14.119,0.047 2.335,2.745 0.66,4.903 -1.04,8.019 -1.33,2.438 -4.027,6.096 -4.307,8.109 -0.121,0.868 1.756,5.011 2.356,7.369 0.759,2.981 0.973,4.895 1.26,6.899 2.837,-0.219 5.286,-0.022 8.83,0.285 0,0 2.662,2.62 5.325,6.192 1.932,2.593 2.553,6.839 1.219,9.53 -1.334,2.691 -8.817,5.548 -13.713,6.842 -3.433,0.956 -6.959,1.493 -10.494,1.834 -1.182,0.276 -2.423,0.725 -3.637,0.338 z m 14.721,-9.869 c 2.332,-1.106 3.87,-2.013 3.646,-3.483 -0.232,-1.524 -2.817,-2.053 -5.734,-2.01 -2.759,0.041 -5.585,2.252 -4.66,5.84 1.822,0.632 4.749,0.601 6.748,-0.347 z m -21.557,-52.584 c 3.122,-0.166 2.85,-7.029 1.42,-7.338 -4.136,-0.428 -4.048,2.154 -4.579,4.265 2.003,1.178 2.219,1.957 3.159,3.073 z" style="fill-rule:nonzero"/></g></g></g></g><g id="Headphones-vereinfacht.svg" transform="matrix(3.29608,0,0,3.29608,378.616,417.563)" style="display:inline"><g id="g41" transform="translate(-77.0248,-45.5054)"><clipPath id="_clip3"><rect id="rect30" width="154.05" height="91.011" x="0" y="0"/></clipPath><g id="g39" clip-path="url(#_clip3)"><g id="Ebene-11" transform="translate(-215.506,-371.625)"><path id="Füllung-dunkelrot" d="m 223.36,441.31 10.133,9.849 12.122,-0.284 6.345,-7.102 -0.095,-13.164 -5.303,-15.91 0.094,-14.868 4.735,-7.292 15.247,-9.754 5.71394,2.72151 0.63106,6.65349 33.051,4.735 10.891,-6.061 1.894,-5.208 7.766,0.379 7.86,6.155 4.451,8.145 13.069,30.778 7.481,2.841 8.334,-10.133 -6.44,-13.543 -10.038,-5.777 -8.523,-5.682 -9.565,-10.512 -7.198,-4.451 -12.027,-3.598 -24.528,-4.262 -27.937,5.493 -9.091,5.777 -11.175,20.266 -14.11,4.451 -3.41,11.269 -2.557,12.69 z" style="fill:#b11331;fill-rule:nonzero"/><path id="Füllung-hellrot" d="m 223.738,436.67 c 0,0 5.683,1.894 10.607,0 4.925,-1.894 7.197,-9.66 7.197,-9.66 0,0 1.516,-7.386 1.516,-11.364 0,-3.977 1.325,-8.712 1.325,-8.712 l 5.493,-11.365 9.092,-8.712 8.63,-0.32 8.226,0.699 35.229,-3.22 10.543,2.368 5.936,-0.474 9.28,6.629 14.206,22.539 12.121,5.493 -2.841,-12.501 -11.174,-3.599 -8.334,-7.765 -6.25,-7.955 -6.061,-3.978 -13.637,-1.894 -7.766,-7.765 -32.388,2.841 -3.984,3.777 -12.494,3.041 -10.358,7.365 -3.09,8.735 -7.008,9.091 -11.553,1.894 z" style="display:none;fill:#e52327;fill-rule:nonzero"/><path id="Füllung-dunkelgrau" d="m 247.91,458.215 12.908,-2.232 1.313,-43.843 -11.115,-12.577 -1.609,-0.95 5.224,-9.978 13.526,-4.017 1.742,6.83 7.566,3.884 14.934,2.478 23.504,-0.737 4.286,-11.116 7.343,-0.047 8.46,7.949 2.904,6.445 -10.337,1.657 0.536,25.715 10.179,16.607 15.73,-5.652 -9.838,-27.563 -6.554,-13.983 -5.398,-8.808 -7.198,-4.451 -8.996,-1.136 -2.652,10.038 -39.585,-1.988 -4.079,-9.008 -9.18,-0.273 -9.091,5.777 -7.86,16.004 -13.448,7.576 11.554,2.841 6.25,9.092 z" style="fill:#212530;fill-rule:nonzero"/><path id="path857" d="m 253.948,436.859 9.849,-3.977 -3.598,-22.634 -9.092,-3.125 -4.261,4.167 z" style="fill:#4d5467;fill-rule:nonzero"/><path id="Kopfhörer" d="m 219.246,446.167 c -6.262,-8.8 -3.376,-20.324 -0.581,-29.845 1.627,-5.821 7.173,-13.453 18.642,-11.788 2.386,-1.225 4.719,-8.96 11.303,-16.185 2.726,-3.754 11.934,-8.881 18.685,-9.269 -0.017,-2.276 3.04,-4.764 6.931,-4.895 11.907,-0.4 26.941,-4.763 36.675,-1.115 1.125,0.421 5.366,2.21 9.78,8.413 3.681,0.011 8.716,1.114 11.456,2.77 6.041,3.652 7.711,11.946 14.262,15.079 5.42,-0.483 9.588,-0.274 12.651,1.063 3.266,1.425 8.032,7.511 9.347,13.019 1.244,5.21 1.352,10.663 0.949,15.27 -0.803,9.185 -11.384,10.284 -14.342,9.947 -1.269,9.803 -9.473,11.503 -15.016,10.161 -5.261,-1.274 -8.95,-5.463 -10.828,-9.003 -4.602,-8.676 -3.795,-18.563 -4.478,-27.936 -0.463,-6.354 0.848,-16.168 8.669,-16.76 -1.205,-7.541 -9.077,-7.272 -11.471,-7.525 0.002,15.448 -13.703,12.696 -20.615,13.004 -7.679,0.166 -16.848,-0.247 -24.156,-2.786 -11.53,-3.55 -9.083,-8.418 -9.511,-11.249 -9.582,-0.14 -15.431,7.165 -16.582,13.026 9.795,0.036 14.615,12.512 16.304,19.995 2.386,10.256 1.212,21.012 -0.721,31.231 -1.617,6.556 -5.827,12.229 -14.679,11.827 -3.471,-0.158 -6.601,0.861 -13.028,-4.534 -6.515,0.425 -15.767,-6.728 -19.646,-11.915 z m 32.226,7.531 c 1.458,0.934 3.104,1.147 5.47,0.288 5.162,-9.446 4.42,-24.397 3.448,-33.2 0.526,-4.724 -6.198,-13.884 -8.93,-9.323 2.252,5.251 4.582,13.209 5.139,20.841 0.719,9.846 0.939,18.01 -5.127,21.394 z m -4.482,-22.861 c -0.517,-7.813 -3.537,-16.186 -12.531,-15.897 -8.666,0.278 -6.99,6.867 -8.848,15.211 -1.656,7.434 4.895,17.398 10.556,17.386 11.491,-0.022 11.403,-7.733 10.823,-16.7 z m 97.741,7.949 c 1.548,-10.571 -0.669,-17.208 -3.373,-27.538 -1.646,-6.288 -4.475,-6.987 -6.619,-6.003 -1.556,11.642 -0.685,34.308 9.992,33.541 z m 8.048,-28.915 c 0.635,7.086 1.219,12.862 2.288,17.683 8.889,0.353 6.132,-17.352 -2.288,-17.683 z m -48.128,-29.776 c -8.063,-0.713 -13.95,0.614 -23.068,0.761 -5.744,0.093 -6.384,8.613 2.178,8.383 5.41,-0.145 19.061,0.191 29.003,-0.517 -2.289,-4.758 -4.645,-7.914 -8.113,-8.627 z" style="fill-rule:nonzero"/></g></g></g></g><g id="g81" transform="matrix(0.64585,0,0,0.64585,123.176,308)"><g id="Purple"><g id="g66"><path style="fill:#000100;fill-rule:nonzero" id="path44" d="m 0.045,554.971 c 2.071,-46 1.01,-92.292 2.18,-138.347 1.032,-40.622 -4.294,-86.348 13.612,-124.03 13.452,-28.323 40.531,-43.429 70.608,-48.114 5.39,-0.839 10.614,-3.213 16.041,-3.385 34.657,-1.093 35.102,0.069 40.611,-40.082 6.284,-45.799 20.647,-89.49 45.304,-127.298 26.028,-39.905 64.001,-63.158 115.329,-69.242 48.797,-5.784 99.348,-7.108 147.43,3.032 76.465,16.13 139.689,53.87 170.74,131.123 3.29,8.185 7.333,15.621 14.372,20.986 45.488,34.666 62.45,87.177 58.885,143.015 -1.543,24.174 -8.586,46.2 -21.374,66.699 -12.664,20.3 -13.728,37.37 -8.326,60.619 16.371,70.433 3.808,139.418 -7.026,208.678 -6.366,40.708 -13.964,81.227 -18.914,122.158 -3.208,26.536 -9.428,52.147 -24.928,74.641 -13.657,23.172 -34.515,32.394 -60.735,31.908 -16.339,-0.303 -32.691,-0.009 -49.035,-0.018 -47.307,-0.037 -59.305,-8.057 -77.45,-51.597 -8.153,-19.492 -11.774,-39.837 -11.673,-60.992 0.045,-9.743 -1.879,-20.193 -14.336,-19.579 -12.594,0.614 -9.419,12.2 -9.725,19.927 -0.871,21.559 1.347,43.311 -4.803,64.494 -8.451,46.537 -40.836,78.839 -89.701,87.914 -43.98,8.167 -85.631,-1.861 -124.377,-21.917 -17.915,-9.267 -26.628,-27.819 -28.745,-48.434 -0.476,-28.787 -5.587,-57.22 -6.563,-86.007 -0.449,-13.144 -4.725,-25.816 -21.66,-24.336 -33.182,2.905 -61.95,-6.325 -84.247,-31.055 C 8.872,670.606 5.975,638.24 2.474,606.442 1.805,600.42 -0.335,563.42 0.045,554.971 Z"/><path style="fill:#235685;fill-rule:nonzero" id="path46" d="m 645.965,256.013 c -0.004,0.002 -0.008,0.004 -0.012,0.005 -0.187,-1.237 -0.444,-2.468 -0.836,-3.676 -6.324,-19.466 -19.982,-33.973 -37.278,-45.279 -31.188,-20.384 -66.694,-29.27 -103.212,-32.027 -40.046,-3.024 -78.728,5.946 -117.396,14.586 -0.602,0.135 -1.144,0.313 -1.712,0.473 -0.01,0.003 -0.021,0.006 -0.032,0.009 -4.408,1.249 -7.796,3.241 -10.292,5.823 -14.972,9.071 -34.105,23.205 -37.238,34.692 -17.187,62.924 27.196,128.664 94.21,141.808 62.798,12.315 120.93,-2.896 176.638,-29.488 32.67,-15.59 45.254,-57.013 37.16,-86.926 z"/><g id="g52"><path style="fill:#6d30bc" id="path48" d="m 228.97,109.072 c 3.391,-7.455 7.554,-14.407 12.733,-20.548 21.292,-25.249 59.811,-31.142 90.865,-32.873 42.698,-2.379 96.895,-1.596 136.493,15.91 30.336,13.412 55.397,36.116 76.2,61.58 -17.677,0 -31.234,0.578 -44.731,-0.103 -50.868,-2.567 -101.067,1.088 -150.555,13.839 -34.979,9.013 -57.564,35.822 -58.797,71.905 -1.673,49.17 -2.617,97.604 23.287,143.096 24.098,42.302 63.55,55.58 106.31,62.193 55.859,8.64 109.546,-7.901 163.058,-20.766 26.688,-6.416 26.261,-8.19 26.225,20.849 1.045,40.9 -8.048,79.939 -20.477,118.616 -12.943,40.272 -42.632,61.62 -81.235,69.476 -43.673,8.891 -88.175,12.021 -132.104,-1.485 -8.914,-2.74 -18.493,-5.069 -27.641,-4.656 -48.173,2.191 -70.965,-29.946 -89.691,-66.346 -25.34,-49.268 -37.105,-102.373 -40.611,-157.467 -1.636,-25.688 -9.308,-50.469 -9.455,-76.584 -0.229,-40.91 -1.161,-82.017 3.762,-122.72 2.836,-23.458 5.966,-51.055 16.364,-73.916 z"/><path style="fill:#6d30bc" id="path50" d="m 136.383,655.481 c -2.072,-27.173 -4.372,-54.397 -4.693,-81.625 -0.551,-46.708 -1.281,-95.316 -0.845,-142.757 0.223,-24.255 0.739,-48.508 1.738,-72.744 0.528,-12.822 10.662,-56.496 -4.439,-61.219 -26.513,-8.291 -56.039,-10.568 -65.807,17.163 -6.245,17.728 -4.086,48.686 -6.227,67.267 -4.225,36.658 -7.039,73.898 -7.746,110.797 -0.681,36.542 0.64,73.044 4.015,109.439 4.822,52.018 25.496,72.354 66.419,71.213 12.915,-0.356 18.616,-3.959 17.585,-17.534 z"/></g><g id="g58"><path style="fill:#411d71" id="path54" d="m 229.581,107.766 c 3.107,15.097 -1.783,31.113 -4.716,45.417 -14.475,70.585 -11.313,143.936 -1.412,214.93 6.22,44.596 12.939,89.612 28.08,132.21 7.854,22.097 17.96,43.397 30.796,63.049 15.547,23.803 23.431,27.564 51.335,33.292 65.489,13.442 140.911,30.206 203.784,-1.856 53.669,-27.369 64.11,-106.639 68.282,-160.309 0.275,-3.538 2.833,-6.897 4.327,-10.344 8.635,48.059 4.556,96.356 3.153,144.661 -2.136,73.266 -35.253,141.829 -31.408,216.154 1.38,26.715 -7.388,33.094 -33.558,33.727 -11.723,0.284 -23.461,0.091 -35.184,0.091 -34.025,0.005 -39.924,-3.722 -42.875,-36.481 -1.503,-16.701 2.626,-33.934 4.441,-50.9 0.779,-7.278 -1.924,-16.732 2.66,-18.973 13.422,-6.563 16.932,-7.452 22.914,-17.189 4.875,-7.934 -2.085,-17.855 -11.178,-15.847 -6.014,1.328 -11.736,2.242 -23.469,2.531 -28.204,0.692 -48.459,3.216 -76.017,-3.077 -9.67,-2.209 -20.395,-1.966 -30.29,-0.509 -12.26,1.811 -19.923,8.012 -22.086,22.769 -4.106,28.003 -4.171,55.923 -3.942,83.981 0.376,46.519 -36.454,77.656 -83.257,70.117 -7.663,-1.233 -15.17,-3.534 -22.691,-5.541 -20.94,-5.582 -30.276,-16.275 -31.018,-40.9 -1.425,-47.298 -7.668,-94.623 -14.689,-141.517 -3.639,-24.305 -2.393,-48.288 -2.686,-72.368 -0.774,-63.329 -2.493,-126.778 0.275,-189.993 3.355,-76.703 1.714,-154.087 23.026,-229.215 6.637,-23.37 18.063,-51.153 27.403,-67.91 z"/><path style="fill:#411d71" id="path56" d="m 132.734,356.636 c -2.82,74.015 -1.882,145.297 -1.044,217.22 0.321,27.228 2.622,54.452 4.693,81.625 1.032,13.575 -4.67,17.178 -17.585,17.535 -40.923,1.141 -61.597,-19.194 -66.419,-71.213 -3.398,-36.662 -4.871,-73.515 -3.995,-110.329 0.594,-24.947 2.601,-49.473 4.14,-74.722 0.351,-5.757 0.471,-58.871 8.008,-58.765 18.383,0.257 56.39,-15.777 72.202,-1.351 z"/></g><path style="fill:#75dbf4;fill-rule:nonzero" id="path60" d="m 390.017,266.457 c 21.024,26.867 53.083,34.694 85.76,34.928 39.403,0.281 80.079,-4.117 118.68,-8.684 15.998,-1.893 32.979,-5.166 45.069,-16.999 5.243,-5.131 7.51,-12.539 6.428,-19.684 -0.187,-1.237 -0.444,-2.468 -0.836,-3.676 -6.324,-19.466 -19.982,-33.973 -37.278,-45.279 -31.188,-20.384 -66.694,-29.27 -103.212,-32.027 -40.046,-3.024 -78.728,5.946 -117.396,14.586 -0.602,0.135 -1.144,0.313 -1.712,0.473 -0.01,0.003 -0.021,0.006 -0.032,0.009 -4.408,1.249 -7.796,3.241 -10.292,5.823 -15.904,16.456 3.576,56.16 14.821,70.53 z"/><path style="fill:#235685;fill-rule:nonzero" id="path62" d="m 385.513,190.091 c -0.008,0.004 -0.017,0.009 -0.025,0.013 0.01,-0.003 0.021,-0.006 0.032,-0.009 -0.003,-0.001 -0.005,-0.003 -0.007,-0.004 z"/><path style="fill:#fafdfd" id="path64" d="m 567.984,251.04 c -33.228,-3.318 -66.969,-6.698 -100.719,-10.048 -14.542,-1.444 -16.792,-12.159 -16.971,-23.525 -0.234,-14.7 9.272,-23.883 22.132,-25.562 38.429,-5.018 75.438,3.877 111.598,15.95 13.36,4.459 19.753,15.234 16.939,29.504 -3.986,20.244 -20.824,10.592 -32.979,13.681 z"/></g><g id="g70" transform="matrix(1.54835,0,0,1.23868,-190.719,-217.078)"><path style="color:#000;font-style:normal;font-variant:normal;font-weight:400;font-stretch:normal;font-size:medium;line-height:normal;font-family:sans-serif;font-variant-ligatures:normal;font-variant-position:normal;font-variant-caps:normal;font-variant-numeric:normal;font-variant-alternates:normal;font-variant-east-asian:normal;font-feature-settings:normal;font-variation-settings:normal;text-indent:0;text-align:start;text-decoration:none;text-decoration-line:none;text-decoration-style:solid;text-decoration-color:#000;letter-spacing:normal;word-spacing:normal;text-transform:none;writing-mode:lr-tb;direction:ltr;text-orientation:mixed;dominant-baseline:auto;baseline-shift:baseline;text-anchor:start;white-space:normal;shape-padding:0;shape-margin:0;inline-size:0;clip-rule:nonzero;display:inline;overflow:visible;visibility:visible;opacity:1;isolation:auto;mix-blend-mode:normal;color-interpolation:sRGB;color-interpolation-filters:linearRGB;solid-color:#000;solid-opacity:1;vector-effect:none;fill:#000;fill-opacity:1;fill-rule:nonzero;stroke:none;stroke-linecap:butt;stroke-linejoin:round;stroke-miterlimit:1.5;stroke-dasharray:none;stroke-dashoffset:0;stroke-opacity:1;color-rendering:auto;image-rendering:auto;shape-rendering:auto;text-rendering:auto;enable-background:accumulate;stop-color:#000;stop-opacity:1" id="path68" d="m 260.93945,477.95508 c -0.28686,0.002 -0.57353,0.0149 -0.85937,0.0391 -6.07816,0.50846 -12.8488,5.84755 -12.34117,11.92578 0,0 8.59585,59.68683 73.32164,84.39844 5.69867,2.17558 12.08203,-0.68032 14.25781,-6.37891 2.17558,-5.69867 -0.68032,-12.08203 -6.37891,-14.25781 -54.54421,-20.82439 -56.93359,-65.60156 -56.93359,-65.60156 -0.48023,-5.74631 -5.30015,-10.15621 -11.06641,-10.125 z"/></g><g id="g74" transform="matrix(1.54835,0,0,1.54835,-178.333,-390.183)"><path style="color:#000;font-style:normal;font-variant:normal;font-weight:400;font-stretch:normal;font-size:medium;line-height:normal;font-family:sans-serif;font-variant-ligatures:normal;font-variant-position:normal;font-variant-caps:normal;font-variant-numeric:normal;font-variant-alternates:normal;font-variant-east-asian:normal;font-feature-settings:normal;font-variation-settings:normal;text-indent:0;text-align:start;text-decoration:none;text-decoration-line:none;text-decoration-style:solid;text-decoration-color:#000;letter-spacing:normal;word-spacing:normal;text-transform:none;writing-mode:lr-tb;direction:ltr;text-orientation:mixed;dominant-baseline:auto;baseline-shift:baseline;text-anchor:start;white-space:normal;shape-padding:0;shape-margin:0;inline-size:0;clip-rule:nonzero;display:inline;overflow:visible;visibility:visible;opacity:1;isolation:auto;mix-blend-mode:normal;color-interpolation:sRGB;color-interpolation-filters:linearRGB;solid-color:#000;solid-opacity:1;vector-effect:none;fill:#000;fill-opacity:1;fill-rule:nonzero;stroke:none;stroke-linecap:butt;stroke-linejoin:round;stroke-miterlimit:1.5;stroke-dasharray:none;stroke-dashoffset:0;stroke-opacity:1;color-rendering:auto;image-rendering:auto;shape-rendering:auto;text-rendering:auto;enable-background:accumulate;stop-color:#000;stop-opacity:1" id="path72" d="m 321.98828,539 c -11.87571,0.006 -22.10821,8.36599 -24.48242,20.00195 -2.75968,13.52761 5.96873,26.73128 19.49609,29.49219 16.33333,2.93399 32.66667,6.48212 49,10 13.52761,2.75968 26.73128,-5.96873 29.49219,-19.49609 2.75968,-13.52761 -5.96873,-26.73128 -19.49609,-29.49219 -20.68682,-3.7291 -34.75169,-6.85621 -49,-10 -1.64864,-0.33679 -3.32708,-0.50627 -5.00977,-0.50586 z"/></g><g id="g78" transform="matrix(1.54835,0,0,1.54835,-178.333,-390.183)"><path style="color:#000;font-style:normal;font-variant:normal;font-weight:400;font-stretch:normal;font-size:medium;line-height:normal;font-family:sans-serif;font-variant-ligatures:normal;font-variant-position:normal;font-variant-caps:normal;font-variant-numeric:normal;font-variant-alternates:normal;font-variant-east-asian:normal;font-feature-settings:normal;font-variation-settings:normal;text-indent:0;text-align:start;text-decoration:none;text-decoration-line:none;text-decoration-style:solid;text-decoration-color:#000;letter-spacing:normal;word-spacing:normal;text-transform:none;writing-mode:lr-tb;direction:ltr;text-orientation:mixed;dominant-baseline:auto;baseline-shift:baseline;text-anchor:start;white-space:normal;shape-padding:0;shape-margin:0;inline-size:0;clip-rule:nonzero;display:inline;overflow:visible;visibility:visible;opacity:1;isolation:auto;mix-blend-mode:normal;color-interpolation:sRGB;color-interpolation-filters:linearRGB;solid-color:#000;solid-opacity:1;vector-effect:none;fill:#8a8a8e;fill-opacity:1;fill-rule:nonzero;stroke:none;stroke-linecap:butt;stroke-linejoin:round;stroke-miterlimit:1.5;stroke-dasharray:none;stroke-dashoffset:0;stroke-opacity:1;color-rendering:auto;image-rendering:auto;shape-rendering:auto;text-rendering:auto;enable-background:accumulate;stop-color:#000;stop-opacity:1" id="path76" d="m 322.06641,559 c -2.40066,-0.0316 -4.48488,1.6476 -4.96485,4 -0.55197,2.70527 1.19328,5.34589 3.89844,5.89844 17.51592,5.6985 33.24186,7.81706 49,10 2.70527,0.55197 5.34589,-1.19328 5.89844,-3.89844 0.55197,-2.70527 -1.19328,-5.34589 -3.89844,-5.89844 -14.54853,-3.2394 -23.988,-6.20989 -49,-10 -0.30732,-0.0631 -0.6199,-0.0971 -0.93359,-0.10156 z"/></g></g></g><g id="Headphones-vereinfacht.svg1" transform="matrix(3.29608,0,0,3.29608,378.616,417.563)" style="display:inline"><g id="g94" transform="translate(-77.0248,-45.5054)"><clipPath id="_clip4"><rect id="rect83" width="154.05" height="91.011" x="0" y="0"/></clipPath><g id="g92" clip-path="url(#_clip4)" style="display:inline"><g id="Ebene-12" transform="translate(-215.506,-371.625)" style="display:inline"><path id="Füllung-dunkelrot1" d="m 223.36,441.31 10.133,9.849 12.122,-0.284 6.345,-7.102 -0.095,-13.164 -5.303,-15.91 0.094,-14.868 4.735,-7.292 15.247,-9.754 6.535,4.261 -0.19,5.114 33.051,4.735 10.891,-6.061 1.894,-5.208 c 0.49314,-3.06135 -0.33301,-5.27848 -4.83,-5.398 l -24.528,-4.262 -27.937,5.493 -9.091,5.777 -11.175,20.266 -14.11,4.451 -3.41,11.269 -2.557,12.69 z" style="fill:#b11331;fill-rule:nonzero"/><path id="Füllung-hellrot1" d="m 223.738,436.67 c 0,0 5.683,1.894 10.607,0 4.925,-1.894 7.197,-9.66 7.197,-9.66 0,0 1.516,-7.386 1.516,-11.364 0,-3.977 1.325,-8.712 1.325,-8.712 l 5.493,-11.365 9.092,-8.712 8.59793,-0.7006 8.25807,1.0796 35.229,-3.22 c 3.06865,6.42719 5.4002,-2.99663 3.789,-1.137 l -7.766,-7.765 -32.388,2.841 -3.984,3.777 -12.494,3.041 -10.358,7.365 -3.09,8.735 -7.008,9.091 -11.553,1.894 z" style="display:inline;fill:#e52327;fill-rule:nonzero"/><path id="Füllung-dunkelgrau1" d="m 247.91,458.215 12.908,-2.232 1.313,-43.843 -11.115,-12.577 -1.609,-0.95 5.224,-9.978 13.526,-4.017 1.742,6.83 7.566,3.884 14.934,2.478 23.504,-0.737 c 1.022,-6.239 1.117,-14.383 1.117,-14.383 l -2.652,10.038 -39.585,-1.988 -4.079,-9.008 -9.18,-0.273 -9.091,5.777 -7.86,16.004 -13.448,7.576 11.554,2.841 6.25,9.092 z" style="fill:#212530;fill-rule:nonzero"/><path id="path8571" d="m 253.948,436.859 9.849,-3.977 -3.598,-22.634 -9.092,-3.125 -4.261,4.167 z" style="fill:#4d5467;fill-rule:nonzero"/><path id="Kopfhörer1" d="m 219.246,446.167 c -6.262,-8.8 -3.376,-20.324 -0.581,-29.845 1.627,-5.821 7.173,-13.453 18.642,-11.788 2.386,-1.225 4.719,-8.96 11.303,-16.185 2.726,-3.754 11.934,-8.881 18.685,-9.269 -0.017,-2.276 3.04,-4.764 6.931,-4.895 11.907,-0.4 26.941,-4.763 36.675,-1.115 1.125,0.421 5.366,2.21 9.78,8.413 -0.32156,1.83525 -1.46387,3.88406 1.199,6.085 0.002,15.448 -13.703,12.696 -20.615,13.004 -7.679,0.166 -16.848,-0.247 -24.156,-2.786 -11.53,-3.55 -9.083,-8.418 -9.511,-11.249 -9.582,-0.14 -15.431,7.165 -16.582,13.026 9.795,0.036 14.615,12.512 16.304,19.995 2.386,10.256 1.212,21.012 -0.721,31.231 -1.617,6.556 -5.827,12.229 -14.679,11.827 -3.471,-0.158 -6.601,0.861 -13.028,-4.534 -6.515,0.425 -15.767,-6.728 -19.646,-11.915 z m 32.226,7.531 c 1.458,0.934 3.104,1.147 5.47,0.288 5.162,-9.446 4.42,-24.397 3.448,-33.2 0.526,-4.724 -6.198,-13.884 -8.93,-9.323 2.252,5.251 4.582,13.209 5.139,20.841 0.719,9.846 0.939,18.01 -5.127,21.394 z m -4.482,-22.861 c -0.517,-7.813 -3.537,-16.186 -12.531,-15.897 -8.666,0.278 -6.99,6.867 -8.848,15.211 -1.656,7.434 4.895,17.398 10.556,17.386 11.491,-0.022 11.403,-7.733 10.823,-16.7 z m 57.661,-50.742 c -8.063,-0.713 -13.95,0.614 -23.068,0.761 -5.744,0.093 -6.384,8.613 2.178,8.383 5.41,-0.145 19.061,0.191 29.003,-0.517 -2.289,-4.758 -4.645,-7.914 -8.113,-8.627 z" style="display:inline;fill-rule:nonzero"/></g></g></g></g></g></g></svg>