<?xml version="1.0" standalone="no"?>
<!DOCTYPE svg PUBLIC "-//W3C//DTD SVG 20010904//EN"
 "http://www.w3.org/TR/2001/REC-SVG-20010904/DTD/svg10.dtd">
<svg version="1.0" xmlns="http://www.w3.org/2000/svg"
 width="96.000000pt" height="96.000000pt" viewBox="0 0 96.000000 96.000000"
 preserveAspectRatio="xMidYMid meet">

<g transform="translate(0.000000,96.000000) scale(0.100000,-0.100000)"
fill="#FFFF" stroke="none">
<path d="M568 939 c-15 -9 -18 -26 -18 -118 0 -77 -4 -117 -15 -137 l-15 -29
0 27 c0 15 -11 40 -24 55 -24 27 -26 27 -53 13 -22 -12 -29 -24 -31 -53 -3
-40 -22 -52 -22 -14 0 29 -10 43 -37 51 -46 14 -63 -1 -63 -55 0 -27 -4 -49
-10 -49 -5 0 -10 -6 -10 -14 0 -7 -7 -27 -15 -42 -19 -37 -19 -54 0 -82 12
-16 13 -27 5 -41 -13 -25 -13 -98 0 -106 6 -4 10 -54 10 -118 0 -62 4 -117 8
-124 19 -30 81 -43 206 -43 216 0 206 -15 206 311 0 222 -2 260 -15 265 -8 4
-15 16 -15 29 0 12 -7 28 -15 35 -12 10 -15 37 -15 119 0 126 -12 149 -62 120z
m32 -118 c0 -84 3 -111 15 -121 27 -22 18 -40 -21 -40 -33 0 -36 2 -28 23 4
12 9 73 11 135 2 61 8 112 14 112 5 0 9 -48 9 -109z m-107 -105 c11 -27 -4
-56 -29 -56 -21 0 -24 5 -24 35 0 30 3 35 24 35 13 0 26 -6 29 -14z m-133 -30
c0 -20 -16 -36 -36 -36 -2 0 -4 14 -4 30 0 23 4 30 20 30 14 0 20 -7 20 -24z
m284 -56 l26 -10 0 -254 c0 -252 0 -255 -22 -270 -32 -23 -286 -23 -328 -1
l-30 16 0 249 c0 305 -17 280 187 280 78 0 153 -4 167 -10z"/>
<path d="M357 544 c-3 -3 -3 -12 0 -20 4 -11 31 -14 124 -14 112 0 119 1 119
20 0 19 -7 20 -118 20 -65 0 -121 -3 -125 -6z"/>
<path d="M357 464 c-3 -3 -3 -12 0 -20 4 -11 31 -14 124 -14 112 0 119 1 119
20 0 19 -7 20 -118 20 -65 0 -121 -3 -125 -6z"/>
<path d="M357 384 c-3 -3 -3 -12 0 -20 4 -11 31 -14 124 -14 112 0 119 1 119
20 0 19 -7 20 -118 20 -65 0 -121 -3 -125 -6z"/>
<path d="M405 230 c-3 -5 0 -13 8 -16 23 -9 142 0 142 11 0 14 -142 19 -150 5z"/>
</g>
</svg>
