<svg xmlns="http://www.w3.org/2000/svg" xmlns:xlink="http://www.w3.org/1999/xlink" width="100%" height="100%" version="1.1" viewBox="0 0 2048 2048" xml:space="preserve" style="fill-rule:evenodd;clip-rule:evenodd"><g><rect width="2048" height="2048" x="0" y="0" style="fill:url(#_Linear1)"/><rect width="2048" height="2048" x="0" y="0" style="fill:#fff;fill-opacity:.25"/><g id="BCL-Logo.svg"><g transform="matrix(0.698044,0,0,0.698044,988.352,1416.83) matrix(1,0,0,1,-1449.5,-1953.5)"><g id="g99" transform="matrix(4.16667,0,0,4.16667,0,0)"><g id="g97"><g transform="matrix(0.475029,-0.0713493,0.0713493,0.475029,158.471,38.0518)"><g id="radio-297183.svg"><g id="g16"><g id="g14"><g id="g26"><path id="path22" d="M391.939,123.35C385.614,123.391 379.682,126.422 375.941,131.523C369.41,140.431 371.335,152.946 380.242,159.479C407.638,179.569 422.064,210.062 419.926,241.445C417.938,270.625 401.758,297.567 375.342,314.723C388.068,314.873 418.829,317.741 429.307,319.649C430.387,318.346 431.441,317.024 432.469,315.685C448.293,295.089 458.044,270.405 459.832,244.164C462.928,198.72 441.625,154.891 403.896,127.223C400.431,124.68 396.238,123.322 391.939,123.35Z" style="fill-rule:nonzero"/><path id="path18" d="M495.109,22.463C489.184,22.492 483.568,25.153 479.793,29.721C476.831,33.305 475.209,37.812 475.209,42.462C475.209,48.423 477.874,54.082 482.469,57.879C541.231,106.44 572.139,176.675 567.182,248.699C562.225,320.729 521.856,386.95 456.771,428.289C451,431.955 447.494,438.335 447.494,445.172C447.494,448.969 448.575,452.689 450.611,455.895C454.277,461.666 460.657,465.172 467.494,465.172C471.291,465.172 475.011,464.091 478.217,462.055C553.35,414.334 601.221,336.666 607.086,251.445C612.951,166.23 576.061,83.332 507.951,27.045C504.34,24.061 499.793,22.439 495.109,22.463Z" style="fill-rule:nonzero"/></g><g id="g38"><path id="path30" d="M131.809,22.852C127.183,22.868 122.704,24.489 119.139,27.436C51.029,83.722 14.139,166.62 20.004,251.836C25.869,337.056 73.74,414.724 148.873,462.445C152.078,464.481 155.798,465.563 159.596,465.563C166.433,465.563 172.813,462.057 176.479,456.285C178.514,453.08 179.596,449.36 179.596,445.562C179.596,438.725 176.09,432.345 170.318,428.68C105.234,387.341 64.865,321.118 59.908,249.088C54.951,177.064 85.859,106.831 144.621,58.27C149.216,54.472 151.881,48.813 151.881,42.853C151.881,38.203 150.259,33.695 147.297,30.111C143.484,25.497 137.794,22.83 131.809,22.852Z" style="fill-rule:nonzero"/><path id="path34" d="M234.988,123.74C230.749,123.749 226.622,125.105 223.203,127.611C185.474,155.279 164.172,199.11 167.268,244.555C170.128,286.539 193.373,324.533 229.257,348.184C237.951,328.951 253.947,316.497 253.947,316.497C226.238,299.428 209.216,271.813 207.174,241.836C205.036,210.452 219.462,179.957 246.857,159.867C255.765,153.335 257.69,140.819 251.158,131.912C247.382,126.763 241.374,123.727 234.988,123.74Z" style="fill-rule:nonzero"/></g></g></g></g></g><g transform="matrix(3.50552,0,0,3.50552,-755.295,-981.692)"><g id="Antenna2-vereinfacht.svg"><g id="g27"><g id="g25"><g id="Ebene-1"><path id="path836" d="M300.828,316.107L305.65,323.473L307.792,330.035L306.989,334.187L317.167,334.187L319.176,338.473L316.632,348.384L319.578,356.018L320.65,366.062L317.569,375.839L326.275,379.321L337.257,376.375L335.917,367.669L330.292,363.652L324.266,359.232L320.382,349.321L319.578,343.027L323.864,335.393L323.73,330.705L317.301,330.973L311.944,330.036L309.132,324.143L311.007,317.982L310.069,312.893L307.658,311.419L302.703,311.821L300.828,316.107Z" style="fill:#7b7a82;fill-opacity:.99;fill-rule:nonzero;stroke:#000;stroke-width:.75px"/><path id="path847" d="M313.527,383.696C309.559,382.512 309.276,377.506 310.102,374.122C310.845,370.23 313.338,365.483 316.923,363.094C316.915,359.312 315.733,356.995 315.228,353.431C314.197,350.569 313.619,351.029 313.379,348.365C314.18,344.872 317.935,337.181 316.55,336.382C312.452,336.49 305.8,336.422 301.702,336.539C298.586,334.915 304.449,328.315 305.335,326.312C304.763,324.311 300.33,321.499 298.84,318.196C297.178,314.515 299.944,309.811 304.094,310.054C307.544,310.135 311.993,309.731 313.908,313.225C315.59,316.821 312.32,325.819 312.32,325.819L313.609,328.232C318.195,328.447 326.035,326.29 327.728,328.279C330.063,331.024 328.388,333.182 326.688,336.298C325.358,338.736 322.661,342.394 322.381,344.407C322.26,345.275 324.137,349.418 324.737,351.776C325.496,354.757 325.71,356.671 325.997,358.675C328.834,358.456 331.283,358.653 334.827,358.96C334.827,358.96 337.489,361.58 340.152,365.152C342.084,367.745 342.705,371.991 341.371,374.682C340.037,377.373 332.554,380.23 327.658,381.524C324.225,382.48 320.699,383.017 317.164,383.358C315.982,383.634 314.741,384.083 313.527,383.696ZM328.248,373.827C330.58,372.721 332.118,371.814 331.894,370.344C331.662,368.82 329.077,368.291 326.16,368.334C323.401,368.375 320.575,370.586 321.5,374.174C323.322,374.806 326.249,374.775 328.248,373.827ZM306.691,321.243C309.813,321.077 309.541,314.214 308.111,313.905C303.975,313.477 304.063,316.059 303.532,318.17C305.535,319.348 305.751,320.127 306.691,321.243Z" style="fill-rule:nonzero"/></g></g></g></g></g><g transform="matrix(3.29608,0,0,3.29608,-585.589,-957.332)"><g id="Headphones-vereinfacht.svg"><g id="g41"><g id="g39"><g id="Ebene-11"><path id="Füllung-dunkelrot" d="M223.36,441.31L233.493,451.159L245.615,450.875L251.96,443.773L251.865,430.609L246.562,414.699L246.656,399.831L251.391,392.539L266.638,382.785L272.352,385.507L272.983,392.16L306.034,396.895L316.925,390.834L318.819,385.626L326.585,386.005L334.445,392.16L338.896,400.305L351.965,431.083L359.446,433.924L367.78,423.791L361.34,410.248L351.302,404.471L342.779,398.789L333.214,388.277L326.016,383.826L313.989,380.228L289.461,375.966L261.524,381.459L252.433,387.236L241.258,407.502L227.148,411.953L223.738,423.222L221.181,435.912L223.36,441.31Z" style="fill:#b11331;fill-rule:nonzero"/><path id="Füllung-dunkelgrau" d="M247.91,458.215L260.818,455.983L262.131,412.14L251.016,399.563L249.407,398.613L254.631,388.635L268.157,384.618L269.899,391.448L277.465,395.332L292.399,397.81L315.903,397.073L320.189,385.957L327.532,385.91L335.992,393.859L338.896,400.304L328.559,401.961L329.095,427.676L339.274,444.283L355.004,438.631L345.166,411.068L338.612,397.085L333.214,388.277L326.016,383.826L317.02,382.69L314.368,392.728L274.783,390.74L270.704,381.732L261.524,381.459L252.433,387.236L244.573,403.24L231.125,410.816L242.679,413.657L248.929,422.749L247.91,458.215Z" style="fill:#212530;fill-rule:nonzero"/><path id="path857" d="M253.948,436.859L263.797,432.882L260.199,410.248L251.107,407.123L246.846,411.29L253.948,436.859Z" style="fill:#4d5467;fill-rule:nonzero"/><path id="Kopfhörer" d="M219.246,446.167C212.984,437.367 215.87,425.843 218.665,416.322C220.292,410.501 225.838,402.869 237.307,404.534C239.693,403.309 242.026,395.574 248.61,388.349C251.336,384.595 260.544,379.468 267.295,379.08C267.278,376.804 270.335,374.316 274.226,374.185C286.133,373.785 301.167,369.422 310.901,373.07C312.026,373.491 316.267,375.28 320.681,381.483C324.362,381.494 329.397,382.597 332.137,384.253C338.178,387.905 339.848,396.199 346.399,399.332C351.819,398.849 355.987,399.058 359.05,400.395C362.316,401.82 367.082,407.906 368.397,413.414C369.641,418.624 369.749,424.077 369.346,428.684C368.543,437.869 357.962,438.968 355.004,438.631C353.735,448.434 345.531,450.134 339.988,448.792C334.727,447.518 331.038,443.329 329.16,439.789C324.558,431.113 325.365,421.226 324.682,411.853C324.219,405.499 325.53,395.685 333.351,395.093C332.146,387.552 324.274,387.821 321.88,387.568C321.882,403.016 308.177,400.264 301.265,400.572C293.586,400.738 284.417,400.325 277.109,397.786C265.579,394.236 268.026,389.368 267.598,386.537C258.016,386.397 252.167,393.702 251.016,399.563C260.811,399.599 265.631,412.075 267.32,419.558C269.706,429.814 268.532,440.57 266.599,450.789C264.982,457.345 260.772,463.018 251.92,462.616C248.449,462.458 245.319,463.477 238.892,458.082C232.377,458.507 223.125,451.354 219.246,446.167ZM251.472,453.698C252.93,454.632 254.576,454.845 256.942,453.986C262.104,444.54 261.362,429.589 260.39,420.786C260.916,416.062 254.192,406.902 251.46,411.463C253.712,416.714 256.042,424.672 256.599,432.304C257.318,442.15 257.538,450.314 251.472,453.698ZM246.99,430.837C246.473,423.024 243.453,414.651 234.459,414.94C225.793,415.218 227.469,421.807 225.611,430.151C223.955,437.585 230.506,447.549 236.167,447.537C247.658,447.515 247.57,439.804 246.99,430.837ZM344.731,438.786C346.279,428.215 344.062,421.578 341.358,411.248C339.712,404.96 336.883,404.261 334.739,405.245C333.183,416.887 334.054,439.553 344.731,438.786ZM352.779,409.871C353.414,416.957 353.998,422.733 355.067,427.554C363.956,427.907 361.199,410.202 352.779,409.871ZM304.651,380.095C296.588,379.382 290.701,380.709 281.583,380.856C275.839,380.949 275.199,389.469 283.761,389.239C289.171,389.094 302.822,389.43 312.764,388.722C310.475,383.964 308.119,380.808 304.651,380.095Z" style="fill-rule:nonzero"/></g></g></g></g></g><g id="g81" transform="matrix(0.64585,0,0,0.64585,123.176,308)"><g id="Purple"><g id="g66"><path id="path44" d="M0.045,554.971C2.116,508.971 1.055,462.679 2.225,416.624C3.257,376.002 -2.069,330.276 15.837,292.594C29.289,264.271 56.368,249.165 86.445,244.48C91.835,243.641 97.059,241.267 102.486,241.095C137.143,240.002 137.588,241.164 143.097,201.013C149.381,155.214 163.744,111.523 188.401,73.715C214.429,33.81 252.402,10.557 303.73,4.473C352.527,-1.311 403.078,-2.635 451.16,7.505C527.625,23.635 590.849,61.375 621.9,138.628C625.19,146.813 629.233,154.249 636.272,159.614C681.76,194.28 698.722,246.791 695.157,302.629C693.614,326.803 686.571,348.829 673.783,369.328C661.119,389.628 660.055,406.698 665.457,429.947C681.828,500.38 669.265,569.365 658.431,638.625C652.065,679.333 644.467,719.852 639.517,760.783C636.309,787.319 630.089,812.93 614.589,835.424C600.932,858.596 580.074,867.818 553.854,867.332C537.515,867.029 521.163,867.323 504.819,867.314C457.512,867.277 445.514,859.257 427.369,815.717C419.216,796.225 415.595,775.88 415.696,754.725C415.741,744.982 413.817,734.532 401.36,735.146C388.766,735.76 391.941,747.346 391.635,755.073C390.764,776.632 392.982,798.384 386.832,819.567C378.381,866.104 345.996,898.406 297.131,907.481C253.151,915.648 211.5,905.62 172.754,885.564C154.839,876.297 146.126,857.745 144.009,837.13C143.533,808.343 138.422,779.91 137.446,751.123C136.997,737.979 132.721,725.307 115.786,726.787C82.604,729.692 53.836,720.462 31.539,695.732C8.872,670.606 5.975,638.24 2.474,606.442C1.805,600.42 -0.335,563.42 0.045,554.971Z" style="fill:#000100;fill-rule:nonzero"/><path id="path46" d="M645.965,256.013C645.961,256.015 645.957,256.017 645.953,256.018C645.766,254.781 645.509,253.55 645.117,252.342C638.793,232.876 625.135,218.369 607.839,207.063C576.651,186.679 541.145,177.793 504.627,175.036C464.581,172.012 425.899,180.982 387.231,189.622C386.629,189.757 386.087,189.935 385.519,190.095C385.509,190.098 385.498,190.101 385.487,190.104C381.079,191.353 377.691,193.345 375.195,195.927C360.223,204.998 341.09,219.132 337.957,230.619C320.77,293.543 365.153,359.283 432.167,372.427C494.965,384.742 553.097,369.531 608.805,342.939C641.475,327.349 654.059,285.926 645.965,256.013Z" style="fill:#235685;fill-rule:nonzero"/><g id="g52"><path id="path48" d="M228.97,109.072C232.361,101.617 236.524,94.665 241.703,88.524C262.995,63.275 301.514,57.382 332.568,55.651C375.266,53.272 429.463,54.055 469.061,71.561C499.397,84.973 524.458,107.677 545.261,133.141C527.584,133.141 514.027,133.719 500.53,133.038C449.662,130.471 399.463,134.126 349.975,146.877C314.996,155.89 292.411,182.699 291.178,218.782C289.505,267.952 288.561,316.386 314.465,361.878C338.563,404.18 378.015,417.458 420.775,424.071C476.634,432.711 530.321,416.17 583.833,403.305C610.521,396.889 610.094,395.115 610.058,424.154C611.103,465.054 602.01,504.093 589.581,542.77C576.638,583.042 546.949,604.39 508.346,612.246C464.673,621.137 420.171,624.267 376.242,610.761C367.328,608.021 357.749,605.692 348.601,606.105C300.428,608.296 277.636,576.159 258.91,539.759C233.57,490.491 221.805,437.386 218.299,382.292C216.663,356.604 208.991,331.823 208.844,305.708C208.615,264.798 207.683,223.691 212.606,182.988C215.442,159.53 218.572,131.933 228.97,109.072Z" style="fill:#6d30bc"/><path id="path50" d="M136.383,655.481C134.311,628.308 132.011,601.084 131.69,573.856C131.139,527.148 130.409,478.54 130.845,431.099C131.068,406.844 131.584,382.591 132.583,358.355C133.111,345.533 143.245,301.859 128.144,297.136C101.631,288.845 72.105,286.568 62.337,314.299C56.092,332.027 58.251,362.985 56.11,381.566C51.885,418.224 49.071,455.464 48.364,492.363C47.683,528.905 49.004,565.407 52.379,601.802C57.201,653.82 77.875,674.156 118.798,673.015C131.713,672.659 137.414,669.056 136.383,655.481Z" style="fill:#6d30bc"/></g><g id="g58"><path id="path54" d="M229.581,107.766C232.688,122.863 227.798,138.879 224.865,153.183C210.39,223.768 213.552,297.119 223.453,368.113C229.673,412.709 236.392,457.725 251.533,500.323C259.387,522.42 269.493,543.72 282.329,563.372C297.876,587.175 305.76,590.936 333.664,596.664C399.153,610.106 474.575,626.87 537.448,594.808C591.117,567.439 601.558,488.169 605.73,434.499C606.005,430.961 608.563,427.602 610.057,424.155C618.692,472.214 614.613,520.511 613.21,568.816C611.074,642.082 577.957,710.645 581.802,784.97C583.182,811.685 574.414,818.064 548.244,818.697C536.521,818.981 524.783,818.788 513.06,818.788C479.035,818.793 473.136,815.066 470.185,782.307C468.682,765.606 472.811,748.373 474.626,731.407C475.405,724.129 472.702,714.675 477.286,712.434C490.708,705.871 494.218,704.982 500.2,695.245C505.075,687.311 498.115,677.39 489.022,679.398C483.008,680.726 477.286,681.64 465.553,681.929C437.349,682.621 417.094,685.145 389.536,678.852C379.866,676.643 369.141,676.886 359.246,678.343C346.986,680.154 339.323,686.355 337.16,701.112C333.054,729.115 332.989,757.035 333.218,785.093C333.594,831.612 296.764,862.749 249.961,855.21C242.298,853.977 234.791,851.676 227.27,849.669C206.33,844.087 196.994,833.394 196.252,808.769C194.827,761.471 188.584,714.146 181.563,667.252C177.924,642.947 179.17,618.964 178.877,594.884C178.103,531.555 176.384,468.106 179.152,404.891C182.507,328.188 180.866,250.804 202.178,175.676C208.815,152.306 220.241,124.523 229.581,107.766Z" style="fill:#411d71"/><path id="path56" d="M132.734,356.636C129.914,430.651 130.852,501.933 131.69,573.856C132.011,601.084 134.312,628.308 136.383,655.481C137.415,669.056 131.713,672.659 118.798,673.016C77.875,674.157 57.201,653.822 52.379,601.803C48.981,565.141 47.508,528.288 48.384,491.474C48.978,466.527 50.985,442.001 52.524,416.752C52.875,410.995 52.995,357.881 60.532,357.987C78.915,358.244 116.922,342.21 132.734,356.636Z" style="fill:#411d71"/></g><path id="path60" d="M390.017,266.457C411.041,293.324 443.1,301.151 475.777,301.385C515.18,301.666 555.856,297.268 594.457,292.701C610.455,290.808 627.436,287.535 639.526,275.702C644.769,270.571 647.036,263.163 645.954,256.018C645.767,254.781 645.51,253.55 645.118,252.342C638.794,232.876 625.136,218.369 607.84,207.063C576.652,186.679 541.146,177.793 504.628,175.036C464.582,172.012 425.9,180.982 387.232,189.622C386.63,189.757 386.088,189.935 385.52,190.095C385.51,190.098 385.499,190.101 385.488,190.104C381.08,191.353 377.692,193.345 375.196,195.927C359.292,212.383 378.772,252.087 390.017,266.457Z" style="fill:#75dbf4;fill-rule:nonzero"/><path id="path62" d="M385.513,190.091C385.505,190.095 385.496,190.1 385.488,190.104C385.498,190.101 385.509,190.098 385.52,190.095C385.517,190.094 385.515,190.092 385.513,190.091Z" style="fill:#235685;fill-rule:nonzero"/><path id="path64" d="M567.984,251.04C534.756,247.722 501.015,244.342 467.265,240.992C452.723,239.548 450.473,228.833 450.294,217.467C450.06,202.767 459.566,193.584 472.426,191.905C510.855,186.887 547.864,195.782 584.024,207.855C597.384,212.314 603.777,223.089 600.963,237.359C596.977,257.603 580.139,247.951 567.984,251.04Z" style="fill:#fafdfd"/></g><g id="g70" transform="matrix(1.54835,0,0,1.23868,-190.719,-217.078)"><path id="path68" d="M260.939,477.955C260.653,477.957 260.366,477.97 260.08,477.994C254.002,478.503 247.231,483.842 247.739,489.92C247.739,489.92 256.335,549.607 321.061,574.318C326.759,576.494 333.143,573.638 335.318,567.939C337.494,562.241 334.638,555.857 328.939,553.682C274.395,532.857 272.006,488.08 272.006,488.08C271.526,482.334 266.706,477.924 260.939,477.955L260.939,477.955Z" style="fill-rule:nonzero"/></g><g id="g74" transform="matrix(1.54835,0,0,1.54835,-178.333,-390.183)"><path id="path72" d="M321.988,539C310.113,539.006 299.88,547.366 297.506,559.002C294.746,572.53 303.475,585.733 317.002,588.494C333.335,591.428 349.669,594.976 366.002,598.494C379.53,601.254 392.733,592.525 395.494,578.998C398.254,565.47 389.525,552.267 375.998,549.506C355.311,545.777 341.246,542.65 326.998,539.506C325.349,539.169 323.671,539 321.988,539Z" style="fill-rule:nonzero"/></g><g id="g78" transform="matrix(1.54835,0,0,1.54835,-178.333,-390.183)"><path id="path76" d="M322.066,559C319.666,558.968 317.582,560.648 317.102,563C316.55,565.705 318.295,568.346 321,568.898C338.516,574.597 354.242,576.716 370,578.898C372.705,579.45 375.346,577.705 375.898,575C376.45,572.295 374.705,569.654 372,569.102C357.451,565.862 348.012,562.892 323,559.102C322.693,559.038 322.38,559.004 322.066,559Z" style="fill:#8a8a8e;fill-rule:nonzero"/></g></g></g><g transform="matrix(3.29608,0,0,3.29608,-585.589,-957.332)"><g id="Headphones-vereinfacht.svg1"><g id="g94"><g id="g92"><g id="Ebene-12"><path id="Füllung-dunkelrot1" d="M223.36,441.31L233.493,451.159L245.615,450.875L251.96,443.773L251.865,430.609L246.562,414.699L246.656,399.831L251.391,392.539L266.638,382.785L273.173,387.046L272.983,392.16L306.034,396.895L316.925,390.834L318.819,385.626C319.312,382.565 318.486,380.348 313.989,380.228L289.461,375.966L261.524,381.459L252.433,387.236L241.258,407.502L227.148,411.953L223.738,423.222L221.181,435.912L223.36,441.31Z" style="fill:#b11331;fill-rule:nonzero"/><path id="Füllung-hellrot" d="M223.738,436.67C223.738,436.67 229.421,438.564 234.345,436.67C239.27,434.776 241.542,427.01 241.542,427.01C241.542,427.01 243.058,419.624 243.058,415.646C243.058,411.669 244.383,406.934 244.383,406.934L249.876,395.569L258.968,386.857L267.566,386.156L275.824,387.236L311.053,384.016C314.122,390.443 316.453,381.019 314.842,382.879L307.076,375.114L274.688,377.955L270.704,381.732L258.21,384.773L247.852,392.138L244.762,400.873L237.754,409.964L226.201,411.858L223.738,436.67Z" style="fill:#e52327;fill-rule:nonzero"/><path id="Füllung-dunkelgrau1" d="M247.91,458.215L260.818,455.983L262.131,412.14L251.016,399.563L249.407,398.613L254.631,388.635L268.157,384.618L269.899,391.448L277.465,395.332L292.399,397.81L315.903,397.073C316.925,390.834 317.02,382.69 317.02,382.69L314.368,392.728L274.783,390.74L270.704,381.732L261.524,381.459L252.433,387.236L244.573,403.24L231.125,410.816L242.679,413.657L248.929,422.749L247.91,458.215Z" style="fill:#212530;fill-rule:nonzero"/><path id="path8571" d="M253.948,436.859L263.797,432.882L260.199,410.248L251.107,407.123L246.846,411.29L253.948,436.859Z" style="fill:#4d5467;fill-rule:nonzero"/><path id="Kopfhörer1" d="M219.246,446.167C212.984,437.367 215.87,425.843 218.665,416.322C220.292,410.501 225.838,402.869 237.307,404.534C239.693,403.309 242.026,395.574 248.61,388.349C251.336,384.595 260.544,379.468 267.295,379.08C267.278,376.804 270.335,374.316 274.226,374.185C286.133,373.785 301.167,369.422 310.901,373.07C312.026,373.491 316.267,375.28 320.681,381.483C320.359,383.318 319.217,385.367 321.88,387.568C321.882,403.016 308.177,400.264 301.265,400.572C293.586,400.738 284.417,400.325 277.109,397.786C265.579,394.236 268.026,389.368 267.598,386.537C258.016,386.397 252.167,393.702 251.016,399.563C260.811,399.599 265.631,412.075 267.32,419.558C269.706,429.814 268.532,440.57 266.599,450.789C264.982,457.345 260.772,463.018 251.92,462.616C248.449,462.458 245.319,463.477 238.892,458.082C232.377,458.507 223.125,451.354 219.246,446.167ZM251.472,453.698C252.93,454.632 254.576,454.845 256.942,453.986C262.104,444.54 261.362,429.589 260.39,420.786C260.916,416.062 254.192,406.902 251.46,411.463C253.712,416.714 256.042,424.672 256.599,432.304C257.318,442.15 257.538,450.314 251.472,453.698ZM246.99,430.837C246.473,423.024 243.453,414.651 234.459,414.94C225.793,415.218 227.469,421.807 225.611,430.151C223.955,437.585 230.506,447.549 236.167,447.537C247.658,447.515 247.57,439.804 246.99,430.837ZM304.651,380.095C296.588,379.382 290.701,380.709 281.583,380.856C275.839,380.949 275.199,389.469 283.761,389.239C289.171,389.094 302.822,389.43 312.764,388.722C310.475,383.964 308.119,380.808 304.651,380.095Z" style="fill-rule:nonzero"/></g></g></g></g></g></g></g></g></g></g><defs><linearGradient id="_Linear1" x1="0" x2="1" y1="0" y2="0" gradientTransform="matrix(-3.29344e-13,-2048,2048,-3.29344e-13,561.462,2048)" gradientUnits="userSpaceOnUse"><stop offset="0" style="stop-color:#42336b;stop-opacity:1"/><stop offset="1" style="stop-color:#8e66ff;stop-opacity:1"/></linearGradient></defs></svg>